<?xml version="1.0" standalone="no"?>
<!DOCTYPE svg PUBLIC "-//W3C//DTD SVG 20010904//EN"
 "http://www.w3.org/TR/2001/REC-SVG-20010904/DTD/svg10.dtd">
<svg version="1.0" xmlns="http://www.w3.org/2000/svg"
 width="512.000000pt" height="512.000000pt" viewBox="0 0 512.000000 512.000000"
 preserveAspectRatio="xMidYMid meet">
<metadata>
Created by potrace 1.14, written by Peter Selinger 2001-2017
</metadata>
<g transform="translate(0.000000,512.000000) scale(0.100000,-0.100000)"
fill="#000000" stroke="none">
<path d="M2379 5056 c-2 -2 -38 -6 -79 -10 -41 -3 -86 -8 -100 -11 -14 -2 -54
-9 -90 -15 -36 -6 -92 -18 -125 -27 -33 -8 -69 -17 -80 -19 -42 -8 -190 -57
-199 -65 -6 -5 -16 -9 -23 -9 -13 0 -34 -9 -168 -68 -136 -61 -386 -212 -494
-299 -452 -365 -756 -836 -890 -1378 -22 -91 -27 -119 -57 -315 -10 -63 -12
-463 -3 -535 41 -330 114 -579 248 -854 223 -455 606 -852 1059 -1094 176 -95
413 -187 572 -222 262 -59 356 -70 605 -70 164 0 299 7 365 19 14 3 41 7 60
10 19 3 46 8 60 11 14 3 36 7 50 10 104 19 339 93 445 140 79 35 257 127 320
165 72 44 215 142 237 163 7 7 36 30 63 51 28 22 92 81 144 130 419 406 673
923 748 1521 9 75 10 461 1 535 -12 100 -22 161 -38 240 -6 30 -14 66 -16 80
-12 62 -71 245 -111 345 -228 569 -657 1037 -1202 1310 -101 51 -300 132 -366
150 -16 5 -34 9 -40 11 -118 35 -272 68 -365 80 -30 3 -64 9 -75 11 -22 6
-451 14 -456 9z"/>
</g>
</svg>
